<svg xmlns="http://www.w3.org/2000/svg" width="480.7244873046875" height="198.29388427734375" viewBox="-190.27513122558594 -18.155004501342773 480.7244873046875 198.29388427734375"><title>Neo4j Graph Visualization</title><desc>Created using Neo4j (http://www.neo4j.com/)</desc><g class="layer relationships"><g class="relationship" transform="translate(261.4493080449615 66.06989490812983) rotate(201.8672046749383)"><path class="outline" fill="#A5ABB6" stroke="none" d="M 25 0.5 L 45.58042571749358 0.5 L 45.58042571749358 -0.5 L 25 -0.5 Z M 82.70542571749358 0.5 L 103.28585143498717 0.5 L 103.28585143498717 3.5 L 110.28585143498717 0 L 103.28585143498717 -3.5 L 103.28585143498717 -0.5 L 82.70542571749358 -0.5 Z"/><text text-anchor="middle" pointer-events="none" font-size="8px" fill="#000000" x="64.14292571749358" y="3" transform="rotate(180 64.14292571749358 0)" font-family="sans-serif">REL_AC</text></g><g class="relationship" transform="translate(-11.637895735097551 18.344995385283706) rotate(358.9658444929672)"><path class="outline" fill="#A5ABB6" stroke="none" d="M 32.5 0.5 L 58.1350985146112 0.5 L 58.1350985146112 -0.5 L 32.5 -0.5 Z M 89.9241610146112 0.5 L 115.5592595292224 0.5 L 115.5592595292224 3.5 L 122.5592595292224 0 L 115.5592595292224 -3.5 L 115.5592595292224 -0.5 L 89.9241610146112 -0.5 Z"/><text text-anchor="middle" pointer-events="none" font-size="8px" fill="#000000" x="74.0296297646112" y="3" font-family="sans-serif">REL_C</text></g><g class="relationship" transform="translate(-161.2751273605374 68.23582548143486) rotate(341.5610011322658)"><path class="outline" fill="#A5ABB6" stroke="none" d="M 25 0.5 L 53.055104274836054 0.5 L 53.055104274836054 -0.5 L 25 -0.5 Z M 90.18010427483605 0.5 L 118.23520854967211 0.5 L 118.23520854967211 3.5 L 125.23520854967211 0 L 118.23520854967211 -3.5 L 118.23520854967211 -0.5 L 90.18010427483605 -0.5 Z"/><text text-anchor="middle" pointer-events="none" font-size="8px" fill="#000000" x="71.61760427483605" y="3" font-family="sans-serif">REL_AC</text></g><g class="relationship" transform="translate(261.4493080449615 66.06989490812983) rotate(494.9868939127617)"><path class="outline" fill="#A5ABB6" stroke="none" d="M 25 0.5 L 38.29730428237096 0.5 L 38.29730428237096 -0.5 L 25 -0.5 Z M 74.98089803237096 0.5 L 88.27820231474192 0.5 L 88.27820231474192 3.5 L 95.27820231474192 0 L 88.27820231474192 -3.5 L 88.27820231474192 -0.5 L 74.98089803237096 -0.5 Z"/><text text-anchor="middle" pointer-events="none" font-size="8px" fill="#000000" x="56.63910115737096" y="3" transform="rotate(180 56.63910115737096 0)" font-family="sans-serif">REL_AB</text></g><g class="relationship" transform="translate(51.74782761589536 145.32044302361442) rotate(362.6720653841634)"><path class="outline" fill="#A5ABB6" stroke="none" d="M 25 0.5 L 43.22972420497381 0.5 L 43.22972420497381 -0.5 L 25 -0.5 Z M 74.57738045497382 0.5 L 92.80710465994763 0.5 L 92.80710465994763 3.5 L 99.80710465994763 0 L 92.80710465994763 -3.5 L 92.80710465994763 -0.5 L 74.57738045497382 -0.5 Z"/><text text-anchor="middle" pointer-events="none" font-size="8px" fill="#000000" x="58.90355232997381" y="3" font-family="sans-serif">REL_B</text></g><g class="relationship" transform="translate(-62.58306287045217 143.89139639020533) rotate(360.71611510161665)"><path class="outline" fill="#A5ABB6" stroke="none" d="M 25 0.5 L 37.996082434842684 0.5 L 37.996082434842684 -0.5 L 25 -0.5 Z M 69.34373868484269 0.5 L 82.33982111968537 0.5 L 82.33982111968537 3.5 L 89.33982111968537 0 L 82.33982111968537 -3.5 L 82.33982111968537 -0.5 L 69.34373868484269 -0.5 Z"/><text text-anchor="middle" pointer-events="none" font-size="8px" fill="#000000" x="53.669910559842684" y="3" font-family="sans-serif">REL_B</text></g><g class="relationship" transform="translate(-161.2751273605374 68.23582548143486) rotate(397.4731281189662)"><path class="outline" fill="#A5ABB6" stroke="none" d="M 25 0.5 L 40.33514620450323 0.5 L 40.33514620450323 -0.5 L 25 -0.5 Z M 77.01873995450323 0.5 L 92.35388615900646 0.5 L 92.35388615900646 3.5 L 99.35388615900646 0 L 92.35388615900646 -3.5 L 92.35388615900646 -0.5 L 77.01873995450323 -0.5 Z"/><text text-anchor="middle" pointer-events="none" font-size="8px" fill="#000000" x="58.67694307950323" y="3" font-family="sans-serif">REL_AB</text></g></g><g class="layer nodes"><g class="node" transform="translate(261.4493080449615,66.06989490812983)"><circle class="outline" cx="0" cy="0" r="25" fill="#F79767" stroke="#f36924" stroke-width="2px"/><text text-anchor="middle" pointer-events="none" font-family="sans-serif" dy="1.5625" font-size="25" fill="#FFFFFF"/><text text-anchor="middle" pointer-events="none" y="5" font-size="10px" fill="#FFFFFF" font-family="sans-serif"> a2</text></g><g class="node" transform="translate(135.89732840740024,15.681781155193875)"><circle class="outline" cx="0" cy="0" r="25" fill="#FFC454" stroke="#d7a013" stroke-width="2px"/><text text-anchor="middle" pointer-events="none" font-family="sans-serif" dy="1.5625" font-size="25" fill="#604A0E"/><text text-anchor="middle" pointer-events="none" y="5" font-size="10px" fill="#604A0E" font-family="sans-serif"> c2</text></g><g class="node" transform="translate(-11.637895735097551,18.344995385283706)"><circle class="outline" cx="0" cy="0" r="32.5" fill="#FFC454" stroke="#d7a013" stroke-width="2px"/><text text-anchor="middle" pointer-events="none" font-family="sans-serif" dy="2.03125" font-size="32.5" fill="#604A0E"/><text text-anchor="middle" pointer-events="none" y="5" font-size="10px" fill="#604A0E" font-family="sans-serif"> c1</text></g><g class="node" transform="translate(-161.2751273605374,68.23582548143486)"><circle class="outline" cx="0" cy="0" r="25" fill="#F79767" stroke="#f36924" stroke-width="2px"/><text text-anchor="middle" pointer-events="none" font-family="sans-serif" dy="1.5625" font-size="25" fill="#FFFFFF"/><text text-anchor="middle" pointer-events="none" y="5" font-size="10px" fill="#FFFFFF" font-family="sans-serif"> a1</text></g><g class="node" transform="translate(176.41923238627396,151.13887977067452)"><circle class="outline" cx="0" cy="0" r="25" fill="#4C8EDA" stroke="#2870c2" stroke-width="2px"/><text text-anchor="middle" pointer-events="none" font-family="sans-serif" dy="1.5625" font-size="25" fill="#FFFFFF"/><text text-anchor="middle" pointer-events="none" y="5" font-size="10px" fill="#FFFFFF" font-family="sans-serif"> b3</text></g><g class="node" transform="translate(51.74782761589536,145.32044302361442)"><circle class="outline" cx="0" cy="0" r="25" fill="#4C8EDA" stroke="#2870c2" stroke-width="2px"/><text text-anchor="middle" pointer-events="none" font-family="sans-serif" dy="1.5625" font-size="25" fill="#FFFFFF"/><text text-anchor="middle" pointer-events="none" y="5" font-size="10px" fill="#FFFFFF" font-family="sans-serif"> b2</text></g><g class="node" transform="translate(-62.58306287045217,143.89139639020533)"><circle class="outline" cx="0" cy="0" r="25" fill="#4C8EDA" stroke="#2870c2" stroke-width="2px"/><text text-anchor="middle" pointer-events="none" font-family="sans-serif" dy="1.5625" font-size="25" fill="#FFFFFF"/><text text-anchor="middle" pointer-events="none" y="5" font-size="10px" fill="#FFFFFF" font-family="sans-serif"> b1</text></g></g></svg>