<svg xmlns="http://www.w3.org/2000/svg" width="465.5352783203125" height="73" viewBox="-159.56304931640625 8.881412506103516 465.5352783203125 73"><title>Neo4j Graph Visualization</title><desc>Created using Neo4j (http://www.neo4j.com/)</desc><g class="layer relationships"><g class="relationship" transform="translate(276.9722361836016 40.4233534328456) rotate(536.0859675759029)"><path class="outline" fill="#A5ABB6" stroke="none" d="M 25 0.5 L 43.31735502550782 0.5 L 43.31735502550782 -0.5 L 25 -0.5 Z M 80.44235502550782 0.5 L 98.75971005101565 0.5 L 98.75971005101565 3.5 L 105.75971005101565 0 L 98.75971005101565 -3.5 L 98.75971005101565 -0.5 L 80.44235502550782 -0.5 Z"/><text text-anchor="middle" pointer-events="none" font-size="8px" fill="#000000" x="61.87985502550782" y="3" transform="rotate(180 61.87985502550782 0)" font-family="sans-serif">REL_AC</text></g><g class="relationship" transform="translate(8.552867474653318 45.381413696802596) rotate(361.6472424155663)"><path class="outline" fill="#A5ABB6" stroke="none" d="M 32.5 0.5 L 53.36630916379053 0.5 L 53.36630916379053 -0.5 L 32.5 -0.5 Z M 85.15537166379053 0.5 L 106.02168082758106 0.5 L 106.02168082758106 3.5 L 113.02168082758106 0 L 106.02168082758106 -3.5 L 106.02168082758106 -0.5 L 85.15537166379053 -0.5 Z"/><text text-anchor="middle" pointer-events="none" font-size="8px" fill="#000000" x="69.26084041379053" y="3" font-family="sans-serif">REL_C</text></g><g class="relationship" transform="translate(-130.56305576716156 45.11363245683655) rotate(360.11028727392426)"><path class="outline" fill="#A5ABB6" stroke="none" d="M 25 0.5 L 43.745590482371284 0.5 L 43.745590482371284 -0.5 L 25 -0.5 Z M 80.87059048237128 0.5 L 99.61618096474257 0.5 L 99.61618096474257 3.5 L 106.61618096474257 0 L 99.61618096474257 -3.5 L 99.61618096474257 -0.5 L 80.87059048237128 -0.5 Z"/><text text-anchor="middle" pointer-events="none" font-size="8px" fill="#000000" x="62.308090482371284" y="3" font-family="sans-serif">REL_AC</text></g></g><g class="layer nodes"><g class="node" transform="translate(276.9722361836016,40.4233534328456)"><circle class="outline" cx="0" cy="0" r="25" fill="#F79767" stroke="#f36924" stroke-width="2px"/><text text-anchor="middle" pointer-events="none" font-family="sans-serif" dy="1.5625" font-size="25" fill="#FFFFFF"/><text text-anchor="middle" pointer-events="none" y="5" font-size="10px" fill="#FFFFFF" font-family="sans-serif"> a2</text></g><g class="node" transform="translate(146.51751123710886,49.348963314563065)"><circle class="outline" cx="0" cy="0" r="25" fill="#FFC454" stroke="#d7a013" stroke-width="2px"/><text text-anchor="middle" pointer-events="none" font-family="sans-serif" dy="1.5625" font-size="25" fill="#604A0E"/><text text-anchor="middle" pointer-events="none" y="5" font-size="10px" fill="#604A0E" font-family="sans-serif"> c2</text></g><g class="node" transform="translate(8.552867474653318,45.381413696802596)"><circle class="outline" cx="0" cy="0" r="32.5" fill="#FFC454" stroke="#d7a013" stroke-width="2px"/><text text-anchor="middle" pointer-events="none" font-family="sans-serif" dy="2.03125" font-size="32.5" fill="#604A0E"/><text text-anchor="middle" pointer-events="none" y="5" font-size="10px" fill="#604A0E" font-family="sans-serif"> c1</text></g><g class="node" transform="translate(-130.56305576716156,45.11363245683655)"><circle class="outline" cx="0" cy="0" r="25" fill="#F79767" stroke="#f36924" stroke-width="2px"/><text text-anchor="middle" pointer-events="none" font-family="sans-serif" dy="1.5625" font-size="25" fill="#FFFFFF"/><text text-anchor="middle" pointer-events="none" y="5" font-size="10px" fill="#FFFFFF" font-family="sans-serif"> a1</text></g></g></svg>