<svg xmlns="http://www.w3.org/2000/svg" width="546.60986328125" height="80.9411849975586" viewBox="-242.4488983154297 54.71564483642578 546.60986328125 80.9411849975586"><title>Neo4j Graph Visualization</title><desc>Created using Neo4j (http://www.neo4j.com/)</desc><g class="layer relationships"><g class="relationship" transform="translate(275.16094221505625 83.71564477878314) rotate(529.1104758634303)"><path class="outline" fill="#A5ABB6" stroke="none" d="M 25 0.5 L 34.86570832117252 0.5 L 34.86570832117252 -0.5 L 25 -0.5 Z M 71.54930207117252 0.5 L 81.41501039234504 0.5 L 81.41501039234504 3.5 L 88.41501039234504 0 L 81.41501039234504 -3.5 L 81.41501039234504 -0.5 L 71.54930207117252 -0.5 Z"/><text text-anchor="middle" pointer-events="none" font-size="8px" fill="#000000" x="53.20750519617252" y="3" transform="rotate(180 53.20750519617252 0)" font-family="sans-serif">REL_AB</text></g><g class="relationship" transform="translate(55.607031935494554 106.65683219834804) rotate(359.1975128755812)"><path class="outline" fill="#A5ABB6" stroke="none" d="M 25 0.5 L 34.92204442980781 0.5 L 34.92204442980781 -0.5 L 25 -0.5 Z M 66.26970067980781 0.5 L 76.19174510961562 0.5 L 76.19174510961562 3.5 L 83.19174510961562 0 L 76.19174510961562 -3.5 L 76.19174510961562 -0.5 L 66.26970067980781 -0.5 Z"/><text text-anchor="middle" pointer-events="none" font-size="8px" fill="#000000" x="50.59587255480781" y="3" font-family="sans-serif">REL_B</text></g><g class="relationship" transform="translate(-61.404926789015164 98.96437361340693) rotate(363.76125749722104)"><path class="outline" fill="#A5ABB6" stroke="none" d="M 25 0.5 L 39.458442007639846 0.5 L 39.458442007639846 -0.5 L 25 -0.5 Z M 70.80609825763985 0.5 L 85.26454026527969 0.5 L 85.26454026527969 3.5 L 92.26454026527969 0 L 85.26454026527969 -3.5 L 85.26454026527969 -0.5 L 70.80609825763985 -0.5 Z"/><text text-anchor="middle" pointer-events="none" font-size="8px" fill="#000000" x="55.132270132639846" y="3" font-family="sans-serif">REL_B</text></g><g class="relationship" transform="translate(-213.44890058699343 93.94973792376616) rotate(361.88901501556245)"><path class="outline" fill="#A5ABB6" stroke="none" d="M 25 0.5 L 54.22152631591133 0.5 L 54.22152631591133 -0.5 L 25 -0.5 Z M 90.90512006591133 0.5 L 120.12664638182267 0.5 L 120.12664638182267 3.5 L 127.12664638182267 0 L 120.12664638182267 -3.5 L 120.12664638182267 -0.5 L 90.90512006591133 -0.5 Z"/><text text-anchor="middle" pointer-events="none" font-size="8px" fill="#000000" x="72.56332319091133" y="3" font-family="sans-serif">REL_AB</text></g></g><g class="layer nodes"><g class="node" transform="translate(275.16094221505625,83.71564477878314)"><circle class="outline" cx="0" cy="0" r="25" fill="#F79767" stroke="#f36924" stroke-width="2px"/><text text-anchor="middle" pointer-events="none" font-family="sans-serif" dy="1.5625" font-size="25" fill="#FFFFFF"/><text text-anchor="middle" pointer-events="none" y="5" font-size="10px" fill="#FFFFFF" font-family="sans-serif"> a2</text></g><g class="node" transform="translate(163.78816527307123,105.14154355868459)"><circle class="outline" cx="0" cy="0" r="25" fill="#57C7E3" stroke="#23b3d7" stroke-width="2px"/><text text-anchor="middle" pointer-events="none" font-family="sans-serif" dy="1.5625" font-size="25" fill="#FFFFFF"/><text text-anchor="middle" pointer-events="none" y="5" font-size="10px" fill="#FFFFFF" font-family="sans-serif"> b3</text></g><g class="node" transform="translate(55.607031935494554,106.65683219834804)"><circle class="outline" cx="0" cy="0" r="25" fill="#57C7E3" stroke="#23b3d7" stroke-width="2px"/><text text-anchor="middle" pointer-events="none" font-family="sans-serif" dy="1.5625" font-size="25" fill="#FFFFFF"/><text text-anchor="middle" pointer-events="none" y="5" font-size="10px" fill="#FFFFFF" font-family="sans-serif"> b2</text></g><g class="node" transform="translate(-61.404926789015164,98.96437361340693)"><circle class="outline" cx="0" cy="0" r="25" fill="#57C7E3" stroke="#23b3d7" stroke-width="2px"/><text text-anchor="middle" pointer-events="none" font-family="sans-serif" dy="1.5625" font-size="25" fill="#FFFFFF"/><text text-anchor="middle" pointer-events="none" y="5" font-size="10px" fill="#FFFFFF" font-family="sans-serif"> b1</text></g><g class="node" transform="translate(-213.44890058699343,93.94973792376616)"><circle class="outline" cx="0" cy="0" r="25" fill="#F79767" stroke="#f36924" stroke-width="2px"/><text text-anchor="middle" pointer-events="none" font-family="sans-serif" dy="1.5625" font-size="25" fill="#FFFFFF"/><text text-anchor="middle" pointer-events="none" y="5" font-size="10px" fill="#FFFFFF" font-family="sans-serif"> a1</text></g></g></svg>